<svg xmlns="http://www.w3.org/2000/svg" data-name="Layer 1" viewBox="0 0 128 160" x="0px" y="0px">
    <title>87 Web Icon Set 44 expanded</title>
    <path d="M46.4707,60.30273a5.6087,5.6087,0,1,0,5.60449-5.3916A5.508,5.508,0,0,0,46.4707,60.30273Zm7.209,0a1.62078,1.62078,0,1,1-1.60449-1.3916A1.51174,1.51174,0,0,1,53.67969,60.30273Z"/>
    <path d="M106.31641,0H21.68359A21.70856,21.70856,0,0,0,0,21.68359v84.63281A21.70856,21.70856,0,0,0,21.68359,128h84.63281A21.70856,21.70856,0,0,0,128,106.31641V21.68359A21.70856,21.70856,0,0,0,106.31641,0ZM124,106.31641A17.70335,17.70335,0,0,1,106.31641,124H21.68359A17.70335,17.70335,0,0,1,4,106.31641V21.68359A17.70335,17.70335,0,0,1,21.68359,4h84.63281A17.70335,17.70335,0,0,1,124,21.68359Z"/>
    <path d="M11.92188,34H115.15625a2,2,0,0,0,0-4H11.92188a2,2,0,0,0,0,4Z"/>
    <path d="M117,94H11a2,2,0,0,0,0,4H117a2,2,0,0,0,0-4Z"/>
    <path d="M38,52.26074V77.73926A6.41872,6.41872,0,0,0,44.55176,84H83.44824A6.41872,6.41872,0,0,0,90,77.73926V54.26074a6.00377,6.00377,0,0,0-.81251-3.014A25.59239,25.59239,0,0,1,87.03,54.04486,9.155,9.155,0,0,0,86,55.47723V61.2594a4.87708,4.87708,0,0,1,.13867,1.10638A4.76056,4.76056,0,0,1,86,63.4624V77.73926a2.04517,2.04517,0,0,1-.34918,1.12085,1.9838,1.9838,0,0,0-.65375-1.24292L69.81738,64.26563c-.04053-.03564-.08636-.0603-.12891-.0921-.053-.03973-.10468-.081-.16052-.11475a1.96193,1.96193,0,0,0-.17572-.08917c-.05939-.02826-.11761-.05786-.17889-.0799-.06079-.02185-.12268-.03607-.18488-.05182-.063-.016-.12512-.03333-.18915-.04309-.063-.00958-.12592-.01166-.18927-.01526-.06445-.00366-.1283-.00873-.19281-.00616-.06366.00256-.126.01245-.18909.021-.06378.00861-.12708.01569-.18988.03046-.06323.01483-.12408.03711-.18585.05811-.05994.02039-.11969.03906-.1778.06525a1.98534,1.98534,0,0,0-.1795.09778c-.05371.03119-.10779.06042-.159.097a1.99819,1.99819,0,0,0-.16443.13831c-.03607.0321-.076.05756-.11017.09271L63.5387,68.00238l3.09314,2.5564L68.60449,68.527,81.64838,80h-34.236l7.93365-8.3894,7.61975,6.29761a2.00047,2.00047,0,0,0,2.54883-3.084L56.45313,67.335c-.03687-.0304-.07831-.0506-.11664-.07794-.0545-.039-.10834-.07776-.16553-.1106-.05627-.03223-.114-.05841-.17236-.08466a1.99579,1.99579,0,0,0-.18719-.07672c-.05811-.01935-.1167-.03308-.1759-.04687a1.98256,1.98256,0,0,0-.20227-.03961c-.05768-.00732-.11487-.0094-.17279-.01172a1.98281,1.98281,0,0,0-.21124-.00031c-.05664.00366-.11206.01239-.16821.02087a1.9854,1.9854,0,0,0-.20892.04c-.0567.01477-.11133.03479-.16669.05457a1.95066,1.95066,0,0,0-.191.07666c-.058.02771-.11267.0611-.16815.09467-.0553.03351-.11011.06677-.16254.10614a2.01059,2.01059,0,0,0-.16113.13947c-.03156.02942-.067.05219-.097.084L44.01367,77.77148l-.00513.00665-.58569.61932a1.99132,1.99132,0,0,0-.52045,1.05225A2.155,2.155,0,0,1,42,77.73926V52.26074A2.42248,2.42248,0,0,1,44.55176,50H75.75323a14.49849,14.49849,0,0,1,1.23816-1.70435A14.35376,14.35376,0,0,0,78.69556,46H44.55176A6.41872,6.41872,0,0,0,38,52.26074Z"/>
    <path d="M80.81543,57.50488a3.19765,3.19765,0,1,0,3.10742,3.21484A3.07455,3.07455,0,0,0,80.81543,57.50488Z"/>
    <path d="M88.31445,43.60449c0-3.06934-2.15332-6.167-6.96289-6.167a10.41715,10.41715,0,0,0-5.68848,1.59375l-.62988.45117,1.61133,4.165,1.05566-.78906a5.41194,5.41194,0,0,1,2.99219-.89062c1.59766.02441,2.4082.70508,2.4082,2.02246,0,1.14063-.59082,2.23047-2.26172,4.16895a9.03274,9.03274,0,0,0-2.44922,6.80566l.14551,1.834h4.749l-.07812-1.97266a5.92219,5.92219,0,0,1,1.79688-4.457C86.87891,48.17773,88.31445,46.28809,88.31445,43.60449Z"/>
</svg>