<svg width="129" height="96" viewBox="0 0 129 96" fill="none" xmlns="http://www.w3.org/2000/svg">
<path d="M28.5873 96C20.0111 96 13.1025 93.0149 7.8615 87.0448C2.6205 80.8358 0 72.597 0 62.3283C0 49.194 3.81164 36.8955 11.4349 25.4328C19.0582 13.9701 28.4681 5.49254 39.6648 0L43.2382 6.08954C38.4737 9.91044 34.1856 14.5672 30.374 20.0597C26.8006 25.5522 23.9418 32.2388 21.7978 40.1194L29.3019 42.2686C36.9252 44.6567 42.8809 48.2388 47.169 53.0149C51.6953 57.791 53.9585 63.6418 53.9585 70.5672C53.9585 78.2089 51.4571 84.4179 46.4543 89.194C41.4515 93.7313 35.4958 96 28.5873 96ZM103.629 96C95.0526 96 88.1441 93.0149 82.9031 87.0448C77.6621 80.8358 75.0416 72.597 75.0416 62.3283C75.0416 49.194 78.8532 36.8955 86.4765 25.4328C94.0997 13.9701 103.51 5.49254 114.706 0L118.28 6.08954C113.515 9.91044 109.227 14.5672 105.416 20.0597C101.842 25.5522 98.9834 32.2388 96.8393 40.1194L104.343 42.2686C111.967 44.6567 117.922 48.2388 122.211 53.0149C126.737 57.791 129 63.6418 129 70.5672C129 78.2089 126.499 84.4179 121.496 89.194C116.493 93.7313 110.537 96 103.629 96Z" fill="#E93E46"/>
</svg>
